<mxfile host="app.diagrams.net" agent="Mozilla/5.0 (Windows NT 10.0; Win64; x64) AppleWebKit/537.36 (KHTML, like Gecko) Chrome/131.0.0.0 Safari/537.36" version="25.0.3">
  <diagram name="Page-1" id="nDb4Prmc-oKWPEFUuwgC">
    <mxGraphModel dx="2634" dy="744" grid="1" gridSize="11" guides="1" tooltips="1" connect="1" arrows="1" fold="1" page="1" pageScale="1" pageWidth="1200" pageHeight="1600" math="0" shadow="0">
      <root>
        <mxCell id="0" />
        <mxCell id="1" parent="0" />
        <mxCell id="LQhzM-H32RQj3qDm_IvA-1" value="Internet" style="ellipse;shape=cloud;whiteSpace=wrap;html=1;" vertex="1" parent="1">
          <mxGeometry x="1190" y="10" width="120" height="80" as="geometry" />
        </mxCell>
        <mxCell id="LQhzM-H32RQj3qDm_IvA-3" value="" style="image;html=1;image=img/lib/clip_art/networking/Wireless_Router_128x128.png" vertex="1" parent="1">
          <mxGeometry x="1076.62" y="72" width="80" height="80" as="geometry" />
        </mxCell>
        <mxCell id="LQhzM-H32RQj3qDm_IvA-8" value="" style="endArrow=none;html=1;rounded=0;exitX=1;exitY=0.5;exitDx=0;exitDy=0;entryX=0.242;entryY=0.875;entryDx=0;entryDy=0;entryPerimeter=0;" edge="1" parent="1" source="LQhzM-H32RQj3qDm_IvA-3" target="LQhzM-H32RQj3qDm_IvA-1">
          <mxGeometry width="50" height="50" relative="1" as="geometry">
            <mxPoint x="866.62" y="202" as="sourcePoint" />
            <mxPoint x="1189.7835631891217" y="83.57408869503843" as="targetPoint" />
            <Array as="points" />
          </mxGeometry>
        </mxCell>
        <mxCell id="LQhzM-H32RQj3qDm_IvA-9" value="Home Router&lt;div&gt;192.168.0.1/24&lt;/div&gt;" style="text;html=1;align=center;verticalAlign=middle;resizable=0;points=[];autosize=1;strokeColor=none;fillColor=none;" vertex="1" parent="1">
          <mxGeometry x="1067.62" y="145" width="100" height="40" as="geometry" />
        </mxCell>
        <mxCell id="LQhzM-H32RQj3qDm_IvA-10" value="" style="image;points=[];aspect=fixed;html=1;align=center;shadow=0;dashed=0;image=img/lib/allied_telesis/computer_and_terminals/Server_Desktop.svg;" vertex="1" parent="1">
          <mxGeometry x="897.4" y="130" width="81.62" height="103.46" as="geometry" />
        </mxCell>
        <mxCell id="LQhzM-H32RQj3qDm_IvA-11" value="Lab PC" style="text;html=1;align=center;verticalAlign=middle;resizable=0;points=[];autosize=1;strokeColor=none;fillColor=none;" vertex="1" parent="1">
          <mxGeometry x="908.21" y="233.46" width="60" height="30" as="geometry" />
        </mxCell>
        <mxCell id="LQhzM-H32RQj3qDm_IvA-12" value="" style="image;sketch=0;aspect=fixed;html=1;points=[];align=center;fontSize=12;image=img/lib/mscae/NetworkInterfaceCard.svg;" vertex="1" parent="1">
          <mxGeometry x="879.8" y="170" width="17.6" height="20" as="geometry" />
        </mxCell>
        <mxCell id="LQhzM-H32RQj3qDm_IvA-14" value="" style="endArrow=none;html=1;rounded=0;entryX=0;entryY=0.75;entryDx=0;entryDy=0;" edge="1" parent="1" source="LQhzM-H32RQj3qDm_IvA-10" target="LQhzM-H32RQj3qDm_IvA-3">
          <mxGeometry width="50" height="50" relative="1" as="geometry">
            <mxPoint x="990" y="165" as="sourcePoint" />
            <mxPoint x="1064.62" y="137" as="targetPoint" />
            <Array as="points" />
          </mxGeometry>
        </mxCell>
        <mxCell id="LQhzM-H32RQj3qDm_IvA-15" value="Bridged" style="text;html=1;align=center;verticalAlign=middle;resizable=0;points=[];autosize=1;strokeColor=none;fillColor=none;" vertex="1" parent="1">
          <mxGeometry x="760" y="140" width="60" height="30" as="geometry" />
        </mxCell>
        <mxCell id="LQhzM-H32RQj3qDm_IvA-19" value="" style="shape=link;html=1;rounded=0;fillColor=#ffe6cc;strokeColor=#d79b00;" edge="1" parent="1">
          <mxGeometry width="100" relative="1" as="geometry">
            <mxPoint x="680" y="160" as="sourcePoint" />
            <mxPoint x="680" y="790" as="targetPoint" />
          </mxGeometry>
        </mxCell>
        <mxCell id="LQhzM-H32RQj3qDm_IvA-20" value="&lt;b&gt;pfSense Firewall&amp;nbsp;&lt;/b&gt;" style="text;html=1;align=center;verticalAlign=middle;resizable=0;points=[];autosize=1;strokeColor=none;fillColor=none;" vertex="1" parent="1">
          <mxGeometry x="620" y="122" width="120" height="30" as="geometry" />
        </mxCell>
        <mxCell id="LQhzM-H32RQj3qDm_IvA-21" value="" style="image;sketch=0;aspect=fixed;html=1;points=[];align=center;fontSize=12;image=img/lib/mscae/NetworkInterfaceCard.svg;" vertex="1" parent="1">
          <mxGeometry x="700" y="172.28" width="16.62" height="18.89" as="geometry" />
        </mxCell>
        <mxCell id="LQhzM-H32RQj3qDm_IvA-23" value="" style="endArrow=none;html=1;rounded=0;exitX=0.963;exitY=0.303;exitDx=0;exitDy=0;exitPerimeter=0;entryX=0.011;entryY=0.5;entryDx=0;entryDy=0;entryPerimeter=0;" edge="1" parent="1" source="LQhzM-H32RQj3qDm_IvA-21" target="LQhzM-H32RQj3qDm_IvA-12">
          <mxGeometry width="50" height="50" relative="1" as="geometry">
            <mxPoint x="790" y="220" as="sourcePoint" />
            <mxPoint x="840" y="170" as="targetPoint" />
          </mxGeometry>
        </mxCell>
        <mxCell id="LQhzM-H32RQj3qDm_IvA-24" value="WAN" style="text;html=1;align=center;verticalAlign=middle;resizable=0;points=[];autosize=1;strokeColor=none;fillColor=none;" vertex="1" parent="1">
          <mxGeometry x="683.31" y="200" width="50" height="30" as="geometry" />
        </mxCell>
        <mxCell id="LQhzM-H32RQj3qDm_IvA-25" value="" style="image;sketch=0;aspect=fixed;html=1;points=[];align=center;fontSize=12;image=img/lib/mscae/NetworkInterfaceCard.svg;" vertex="1" parent="1">
          <mxGeometry x="595.61" y="172.28" width="24.39" height="27.72" as="geometry" />
        </mxCell>
        <mxCell id="LQhzM-H32RQj3qDm_IvA-26" value="" style="image;sketch=0;aspect=fixed;html=1;points=[];align=center;fontSize=12;image=img/lib/mscae/NetworkInterfaceCard.svg;" vertex="1" parent="1">
          <mxGeometry x="595.61" y="290" width="24.39" height="27.72" as="geometry" />
        </mxCell>
        <mxCell id="LQhzM-H32RQj3qDm_IvA-27" value="" style="image;sketch=0;aspect=fixed;html=1;points=[];align=center;fontSize=12;image=img/lib/mscae/NetworkInterfaceCard.svg;" vertex="1" parent="1">
          <mxGeometry x="595.61" y="410" width="24.39" height="27.72" as="geometry" />
        </mxCell>
        <mxCell id="LQhzM-H32RQj3qDm_IvA-28" value="" style="image;sketch=0;aspect=fixed;html=1;points=[];align=center;fontSize=12;image=img/lib/mscae/NetworkInterfaceCard.svg;" vertex="1" parent="1">
          <mxGeometry x="595.61" y="520" width="24.39" height="27.72" as="geometry" />
        </mxCell>
        <mxCell id="LQhzM-H32RQj3qDm_IvA-29" value="Prod" style="text;html=1;align=center;verticalAlign=middle;resizable=0;points=[];autosize=1;strokeColor=none;fillColor=none;" vertex="1" parent="1">
          <mxGeometry x="575" y="210" width="50" height="30" as="geometry" />
        </mxCell>
        <mxCell id="LQhzM-H32RQj3qDm_IvA-30" value="Test" style="text;html=1;align=center;verticalAlign=middle;resizable=0;points=[];autosize=1;strokeColor=none;fillColor=none;" vertex="1" parent="1">
          <mxGeometry x="570" y="330" width="50" height="30" as="geometry" />
        </mxCell>
        <mxCell id="LQhzM-H32RQj3qDm_IvA-31" value="Text" style="text;html=1;align=center;verticalAlign=middle;resizable=0;points=[];autosize=1;strokeColor=none;fillColor=none;" vertex="1" parent="1">
          <mxGeometry x="575" y="448" width="50" height="30" as="geometry" />
        </mxCell>
        <mxCell id="LQhzM-H32RQj3qDm_IvA-33" value="" style="endArrow=none;html=1;rounded=0;" edge="1" parent="1">
          <mxGeometry width="50" height="50" relative="1" as="geometry">
            <mxPoint x="44" as="sourcePoint" />
            <mxPoint x="44" y="352" as="targetPoint" />
          </mxGeometry>
        </mxCell>
        <mxCell id="LQhzM-H32RQj3qDm_IvA-34" value="" style="endArrow=none;html=1;rounded=0;" edge="1" parent="1">
          <mxGeometry width="50" height="50" relative="1" as="geometry">
            <mxPoint x="44" as="sourcePoint" />
            <mxPoint x="528" as="targetPoint" />
          </mxGeometry>
        </mxCell>
        <mxCell id="LQhzM-H32RQj3qDm_IvA-35" value="" style="endArrow=none;html=1;rounded=0;" edge="1" parent="1">
          <mxGeometry width="50" height="50" relative="1" as="geometry">
            <mxPoint x="528" y="352" as="sourcePoint" />
            <mxPoint x="528" as="targetPoint" />
          </mxGeometry>
        </mxCell>
        <mxCell id="LQhzM-H32RQj3qDm_IvA-36" value="" style="endArrow=none;html=1;rounded=0;" edge="1" parent="1">
          <mxGeometry width="50" height="50" relative="1" as="geometry">
            <mxPoint x="44" y="352" as="sourcePoint" />
            <mxPoint x="528" y="352" as="targetPoint" />
            <Array as="points" />
          </mxGeometry>
        </mxCell>
        <mxCell id="LQhzM-H32RQj3qDm_IvA-37" value="10.0.5./24" style="text;html=1;align=center;verticalAlign=middle;resizable=0;points=[];autosize=1;strokeColor=none;fillColor=none;" vertex="1" parent="1">
          <mxGeometry x="450" width="80" height="30" as="geometry" />
        </mxCell>
        <mxCell id="LQhzM-H32RQj3qDm_IvA-38" value="" style="endArrow=none;html=1;rounded=0;" edge="1" parent="1" target="LQhzM-H32RQj3qDm_IvA-25">
          <mxGeometry width="50" height="50" relative="1" as="geometry">
            <mxPoint x="520" y="186" as="sourcePoint" />
            <mxPoint x="450" y="320" as="targetPoint" />
          </mxGeometry>
        </mxCell>
        <mxCell id="LQhzM-H32RQj3qDm_IvA-39" value="" style="sketch=0;aspect=fixed;pointerEvents=1;shadow=0;dashed=0;html=1;strokeColor=none;labelPosition=center;verticalLabelPosition=bottom;verticalAlign=top;align=center;fillColor=#00188D;shape=mxgraph.mscae.enterprise.domain_controller" vertex="1" parent="1">
          <mxGeometry x="442" y="44.33" width="66" height="91.67" as="geometry" />
        </mxCell>
        <mxCell id="LQhzM-H32RQj3qDm_IvA-40" value="&lt;font style=&quot;font-size: 11px;&quot;&gt;DC-1&lt;/font&gt;&lt;div&gt;&lt;font style=&quot;font-size: 11px;&quot;&gt;10.0.5.10&lt;/font&gt;&lt;/div&gt;" style="text;html=1;align=center;verticalAlign=middle;resizable=0;points=[];autosize=1;strokeColor=none;fillColor=none;" vertex="1" parent="1">
          <mxGeometry x="442" y="129" width="66" height="44" as="geometry" />
        </mxCell>
        <mxCell id="LQhzM-H32RQj3qDm_IvA-41" value="" style="sketch=0;pointerEvents=1;shadow=0;dashed=0;html=1;strokeColor=none;fillColor=#505050;labelPosition=center;verticalLabelPosition=bottom;verticalAlign=top;outlineConnect=0;align=center;shape=mxgraph.office.servers.exchange_server;" vertex="1" parent="1">
          <mxGeometry x="330" y="46" width="70" height="90" as="geometry" />
        </mxCell>
        <mxCell id="LQhzM-H32RQj3qDm_IvA-43" value="&lt;font style=&quot;font-size: 11px;&quot;&gt;EX-2019&lt;/font&gt;&lt;div&gt;&lt;span style=&quot;font-size: 11px; background-color: initial;&quot;&gt;10.0.5.11&lt;/span&gt;&lt;/div&gt;" style="text;html=1;align=center;verticalAlign=middle;resizable=0;points=[];autosize=1;strokeColor=none;fillColor=none;" vertex="1" parent="1">
          <mxGeometry x="317" y="129" width="66" height="44" as="geometry" />
        </mxCell>
        <mxCell id="LQhzM-H32RQj3qDm_IvA-45" value="" style="fontColor=#0066CC;verticalAlign=top;verticalLabelPosition=bottom;labelPosition=center;align=center;html=1;outlineConnect=0;fillColor=#CCCCCC;strokeColor=#6881B3;gradientColor=none;gradientDirection=north;strokeWidth=2;shape=mxgraph.networks.pc;" vertex="1" parent="1">
          <mxGeometry x="49.5" y="266" width="44" height="42" as="geometry" />
        </mxCell>
        <mxCell id="LQhzM-H32RQj3qDm_IvA-46" value="&amp;nbsp;Win10 PC" style="text;html=1;align=center;verticalAlign=middle;resizable=0;points=[];autosize=1;strokeColor=none;fillColor=none;" vertex="1" parent="1">
          <mxGeometry x="33" y="308" width="77" height="33" as="geometry" />
        </mxCell>
        <mxCell id="LQhzM-H32RQj3qDm_IvA-47" value="" style="sketch=0;pointerEvents=1;shadow=0;dashed=0;html=1;strokeColor=none;fillColor=#505050;labelPosition=center;verticalLabelPosition=bottom;outlineConnect=0;verticalAlign=top;align=center;shape=mxgraph.office.clouds.office_365;" vertex="1" parent="1">
          <mxGeometry x="-51.5" width="62.5" height="44" as="geometry" />
        </mxCell>
        <mxCell id="LQhzM-H32RQj3qDm_IvA-48" value="" style="image;sketch=0;aspect=fixed;html=1;points=[];align=center;fontSize=12;image=img/lib/mscae/Azure_AD_Domain_Services.svg;" vertex="1" parent="1">
          <mxGeometry x="-45.25" y="56" width="50" height="50" as="geometry" />
        </mxCell>
        <mxCell id="LQhzM-H32RQj3qDm_IvA-51" value="" style="endArrow=none;html=1;rounded=0;exitX=0.965;exitY=-0.02;exitDx=0;exitDy=0;exitPerimeter=0;" edge="1" parent="1" source="LQhzM-H32RQj3qDm_IvA-48">
          <mxGeometry width="50" height="50" relative="1" as="geometry">
            <mxPoint x="-0.5" y="94" as="sourcePoint" />
            <mxPoint x="44" y="55" as="targetPoint" />
          </mxGeometry>
        </mxCell>
      </root>
    </mxGraphModel>
  </diagram>
</mxfile>
